<svg width="25" height="24" viewBox="0 0 25 24" fill="none" xmlns="http://www.w3.org/2000/svg">
<path d="M24.7925 6.47177C24.6379 6.25403 24.4303 6.14516 24.1699 6.14516H7.59277L6.32324 1.8629C6.20931 1.47581 6.05469 1.14516 5.85937 0.870968C5.66406 0.596774 5.45654 0.403226 5.23682 0.290323C5.01709 0.177419 4.82585 0.100806 4.66309 0.0604839C4.50033 0.0201613 4.33756 0 4.1748 0H0.830078C0.61849 0 0.439453 0.0725806 0.292969 0.217742C0.146484 0.362903 0.0732422 0.548387 0.0732422 0.774194C0.0732422 0.903226 0.105794 1.02823 0.170898 1.14919C0.236003 1.27016 0.32959 1.3629 0.45166 1.42742C0.57373 1.49194 0.69987 1.52419 0.830078 1.52419H4.1748C4.23991 1.52419 4.30094 1.53226 4.35791 1.54839C4.41488 1.56452 4.49219 1.63306 4.58984 1.75403C4.6875 1.875 4.76888 2.05645 4.83398 2.29839L9.15527 18.0242C9.18783 18.121 9.24072 18.2137 9.31396 18.3024C9.38721 18.3911 9.47266 18.4597 9.57031 18.5081C9.66797 18.5565 9.77376 18.5806 9.88769 18.5806H20.4346C20.5973 18.5806 20.7479 18.5323 20.8862 18.4355C21.0246 18.3387 21.1182 18.2177 21.167 18.0726L24.9023 7.18548C24.9837 6.92742 24.9471 6.68952 24.7925 6.47177ZM19.8975 17.0323H10.498L8.00781 7.69355H23.0469L19.8975 17.0323ZM18.3594 20.129C17.8223 20.129 17.3625 20.3185 16.98 20.6976C16.5975 21.0766 16.4062 21.5323 16.4062 22.0645C16.4062 22.5968 16.5975 23.0524 16.98 23.4315C17.3625 23.8105 17.8223 24 18.3594 24C18.8965 24 19.3563 23.8105 19.7388 23.4315C20.1213 23.0524 20.3125 22.5968 20.3125 22.0645C20.3125 21.5323 20.1213 21.0766 19.7388 20.6976C19.3563 20.3185 18.8965 20.129 18.3594 20.129ZM11.3281 20.129C10.9701 20.129 10.6405 20.2177 10.3394 20.3952C10.0382 20.5726 9.80225 20.8065 9.63135 21.0968C9.46045 21.3871 9.375 21.7097 9.375 22.0645C9.375 22.5968 9.56624 23.0524 9.94873 23.4315C10.3312 23.8105 10.791 24 11.3281 24C11.8652 24 12.325 23.8105 12.7075 23.4315C13.09 23.0524 13.2812 22.5968 13.2812 22.0645C13.2812 21.9355 13.269 21.8065 13.2446 21.6774C13.2202 21.5484 13.1836 21.4274 13.1348 21.3145C13.0859 21.2016 13.0249 21.0927 12.9517 20.9879C12.8784 20.8831 12.797 20.7863 12.7075 20.6976C12.618 20.6089 12.5203 20.5282 12.4145 20.4556C12.3088 20.3831 12.1989 20.3226 12.085 20.2742C11.971 20.2258 11.849 20.1895 11.7187 20.1653C11.5885 20.1411 11.4583 20.129 11.3281 20.129Z" fill="#4D4D4D"/>
</svg>
