<svg width="24" height="24" viewBox="0 0 24 24" fill="none" xmlns="http://www.w3.org/2000/svg">
<rect width="24" height="24" rx="12" fill="#EA680B"/>
<path d="M16.0001 11.4995H17.0001C17.0001 8.9345 15.0636 7 12.4951 7V8C14.5261 8 16.0001 9.4715 16.0001 11.4995Z" fill="white"/>
<path d="M12.5002 9.99988C13.5517 9.99988 14.0002 10.4484 14.0002 11.4999H15.0002C15.0002 9.88738 14.1127 8.99988 12.5002 8.99988V9.99988ZM14.2112 12.7214C14.1151 12.6341 13.9889 12.5875 13.8591 12.5915C13.7293 12.5955 13.6062 12.6498 13.5157 12.7429L12.3192 13.9734C12.0312 13.9184 11.4522 13.7379 10.8562 13.1434C10.2602 12.5469 10.0797 11.9664 10.0262 11.6804L11.2557 10.4834C11.3489 10.3929 11.4033 10.2698 11.4073 10.14C11.4113 10.0102 11.3646 9.8839 11.2772 9.78788L9.4297 7.75638C9.34222 7.66005 9.22064 7.60163 9.09078 7.59351C8.96092 7.58538 8.833 7.6282 8.7342 7.71288L7.6492 8.64338C7.56276 8.73013 7.51116 8.8456 7.5042 8.96788C7.4967 9.09288 7.3537 12.0539 9.6497 14.3509C11.6527 16.3534 14.1617 16.4999 14.8527 16.4999C14.9537 16.4999 15.0157 16.4969 15.0322 16.4959C15.1545 16.489 15.2699 16.4372 15.3562 16.3504L16.2862 15.2649C16.3709 15.1661 16.4138 15.0383 16.4058 14.9084C16.3978 14.7785 16.3395 14.6569 16.2432 14.5694L14.2112 12.7214Z" fill="white"/>
</svg>
