<svg width="15" height="15" viewBox="0 0 15 15" fill="none" xmlns="http://www.w3.org/2000/svg">
<path d="M7.5 14.5C11.366 14.5 14.5 11.366 14.5 7.5C14.5 3.63401 11.366 0.5 7.5 0.5C3.63401 0.5 0.5 3.63401 0.5 7.5C0.5 11.366 3.63401 14.5 7.5 14.5Z" fill="#039BE5"/>
<path d="M3.28948 6.7065L10.0386 4.18311C10.3519 4.07337 10.6255 4.25721 10.524 4.71652L10.5246 4.71595L9.37539 9.96581C9.29023 10.338 9.06214 10.4285 8.74306 10.2532L6.99306 9.0025L6.14898 9.79102C6.05564 9.88153 5.9769 9.95789 5.79606 9.95789L5.92031 8.23094L9.16364 5.38965C9.30481 5.26917 9.13214 5.20129 8.94606 5.32121L4.93798 7.76823L3.21015 7.24557C2.83506 7.13017 2.8269 6.88185 3.28948 6.7065Z" fill="white"/>
</svg>
