<svg width="491" height="491" viewBox="0 0 491 491" fill="none" xmlns="http://www.w3.org/2000/svg">
<g clip-path="url(#clip0)">
<path d="M18.36 370.159L245.475 143.023L472.59 370.159C476.827 374.252 483.58 374.134 487.673 369.897C491.665 365.763 491.665 359.21 487.673 355.077L253.006 120.41C248.841 116.246 242.089 116.246 237.923 120.41L3.25598 355.077C-0.981019 359.17 -1.09801 365.922 2.99399 370.16C7.08699 374.397 13.839 374.514 18.077 370.422C18.166 370.336 18.253 370.249 18.339 370.16L18.36 370.159Z" fill="#FFC107"/>
<path d="M245.475 117.273C248.306 117.268 251.023 118.388 253.027 120.388L487.694 355.055C491.787 359.292 491.669 366.045 487.432 370.138C483.298 374.13 476.745 374.13 472.612 370.138L245.476 143.023L18.361 370.159C14.268 374.396 7.51598 374.513 3.27798 370.421C-0.959015 366.328 -1.07601 359.576 3.01599 355.338C3.10199 355.249 3.18898 355.162 3.27798 355.076L237.944 120.409C239.94 118.407 242.649 117.28 245.475 117.273Z" fill="white"/>
</g>
<defs>
<clipPath id="clip0">
<rect width="490.688" height="490.688" fill="white" transform="translate(490.688 490.688) rotate(-180)"/>
</clipPath>
</defs>
</svg>
