<svg width="15" height="15" viewBox="0 0 15 15" fill="none" xmlns="http://www.w3.org/2000/svg">
<path d="M7.5 14.5C11.366 14.5 14.5 11.366 14.5 7.5C14.5 3.63401 11.366 0.5 7.5 0.5C3.63401 0.5 0.5 3.63401 0.5 7.5C0.5 11.366 3.63401 14.5 7.5 14.5Z" fill="#7F4DA0"/>
<path d="M9.95009 7.00962H10.6034C10.6034 5.33382 9.33824 4.06995 7.66016 4.06995V4.72328C8.98708 4.72328 9.95009 5.68466 9.95009 7.00962Z" fill="white"/>
<path d="M7.66355 6.02983C8.35053 6.02983 8.64355 6.32285 8.64355 7.00983H9.29688C9.29688 5.95633 8.71705 5.3765 7.66355 5.3765V6.02983ZM8.7814 7.80788C8.71863 7.75083 8.63615 7.7204 8.55137 7.72302C8.46658 7.72564 8.38614 7.7611 8.32701 7.82192L7.5453 8.62585C7.35714 8.58992 6.97886 8.47199 6.58947 8.08358C6.20008 7.69387 6.08216 7.31461 6.0472 7.12776L6.85048 6.34572C6.91137 6.28663 6.94689 6.20617 6.94951 6.12136C6.95213 6.03656 6.92165 5.95406 6.86452 5.89132L5.65749 4.56408C5.60034 4.50115 5.5209 4.46298 5.43606 4.45767C5.35121 4.45236 5.26764 4.48034 5.2031 4.53566L4.49423 5.14358C4.43775 5.20027 4.40404 5.2757 4.39949 5.35559C4.39459 5.43726 4.30117 7.37178 5.80122 8.87248C7.10985 10.1808 8.74906 10.2765 9.20052 10.2765C9.2665 10.2765 9.30701 10.2745 9.31779 10.2739C9.39766 10.2694 9.47306 10.2356 9.52947 10.1788L10.1371 9.46963C10.1924 9.40512 10.2205 9.32158 10.2152 9.23673C10.21 9.15189 10.1719 9.07243 10.109 9.01524L8.7814 7.80788Z" fill="white"/>
</svg>
