<svg width="15" height="15" viewBox="0 0 15 15" fill="none" xmlns="http://www.w3.org/2000/svg">
<path d="M7.50175 0.5H7.49825C3.63863 0.5 0.5 3.6395 0.5 7.5C0.5 9.03125 0.9935 10.4505 1.83263 11.6029L0.96025 14.2034L3.65088 13.3433C4.75775 14.0765 6.07812 14.5 7.50175 14.5C11.3614 14.5 14.5 11.3596 14.5 7.5C14.5 3.64038 11.3614 0.5 7.50175 0.5Z" fill="#4CAF50"/>
<path d="M11.2519 10.4161C11.0935 10.8646 10.4647 11.2366 9.96309 11.3453C9.61994 11.4185 9.17171 11.477 7.66284 10.8498C5.73283 10.0482 4.48994 8.08201 4.39307 7.95444C4.30031 7.82688 3.61319 6.91333 3.61319 5.9685C3.61319 5.02368 4.09179 4.56361 4.28471 4.36609C4.44315 4.20395 4.70503 4.12988 4.95623 4.12988C5.0375 4.12988 5.11057 4.134 5.17624 4.13729C5.36916 4.14552 5.46603 4.15704 5.59327 4.46238C5.75171 4.84508 6.13755 5.78991 6.18352 5.88702C6.23032 5.98414 6.27711 6.11582 6.21143 6.24339C6.14986 6.37507 6.09568 6.43351 5.99881 6.54544C5.90194 6.65737 5.81 6.74296 5.71313 6.86312C5.62447 6.96765 5.52432 7.07958 5.63596 7.27299C5.74761 7.46228 6.13345 8.09353 6.70153 8.60051C7.43462 9.25481 8.02897 9.46386 8.2416 9.55274C8.40003 9.61858 8.58885 9.60295 8.7046 9.47949C8.85155 9.32065 9.03297 9.05729 9.21768 8.79804C9.34903 8.61203 9.51486 8.58899 9.6889 8.65483C9.86622 8.71656 10.8045 9.18156 10.9975 9.27785C11.1904 9.37497 11.3176 9.42106 11.3644 9.50254C11.4104 9.58402 11.4104 9.96672 11.2519 10.4161Z" fill="#FAFAFA"/>
</svg>
